<svg xmlns="http://www.w3.org/2000/svg" viewBox="0 0 482.1 482.1"><path d="M142 310c0-8-6-13-15-13l-8 1v26h6c11 0 17-5 17-14zM203 298h-9v57l7 1c17 0 29-10 29-31 0-18-10-27-27-27z"/><path d="M315 0H122C94 0 70 23 70 51v190h-5c-11 0-20 9-20 21v125c0 12 9 21 20 21h5v23c0 28 24 51 52 51h264c28 0 51-23 51-51V121L315 0zM99 284l27-1c12 0 20 2 26 7 6 4 10 11 10 20 0 8-3 15-8 20-7 7-17 9-29 9h-6v31H99v-86zm287 167H122c-11 0-20-9-20-20v-23h246c12 0 21-9 21-21V262c0-12-9-21-21-21H102V51c0-11 9-20 20-20h182v68c0 19 16 35 35 35h66l1 297c0 11-9 20-20 20zm-212-81v-86l27-1c16 0 27 3 35 9 9 7 15 17 15 33s-6 28-14 35c-10 7-24 11-41 11l-22-1zm141-51v16h-31v35h-20v-87h53v16h-33v20h31z"/></svg>